<svg xmlns="http://www.w3.org/2000/svg" width="19" height="18" viewBox="0 0 19 18" fill="none">
  <path fill-rule="evenodd" clip-rule="evenodd" d="M7.9125 13.785H3.0675C2.955 13.785 2.835 13.74 2.7525 13.6575C2.67 13.575 2.625 13.4625 2.625 13.35V6.8925H14.535V7.1625C14.535 7.47 14.79 7.725 15.0975 7.725C15.405 7.725 15.66 7.47 15.66 7.1625V3.8175C15.66 3.3975 15.495 3.0075 15.2025 2.7075C14.9025 2.415 14.5125 2.25 14.0925 2.25H12.6525V1.3125C12.6525 1.005 12.3975 0.75 12.09 0.75C11.7825 0.75 11.5275 1.005 11.5275 1.3125V2.2575H5.6325V1.3125C5.6325 1.005 5.3775 0.75 5.07 0.75C4.7625 0.75 4.5075 1.005 4.5075 1.3125V2.2575H3.0675C2.655 2.2575 2.25 2.4225 1.9575 2.715C1.665 3.0075 1.5 3.405 1.5 3.825V13.35C1.5 13.7625 1.665 14.1675 1.9575 14.46C2.25 14.7525 2.655 14.9175 3.0675 14.9175H7.9125C8.22 14.9175 8.475 14.6625 8.475 14.355C8.475 14.0475 8.22 13.7925 7.9125 13.7925V13.785ZM2.625 3.8175C2.625 3.6975 2.67 3.5925 2.7525 3.5025C2.835 3.4125 2.9475 3.375 3.0675 3.375H4.5075V4.32C4.5075 4.6275 4.7625 4.8825 5.07 4.8825C5.3775 4.8825 5.6325 4.6275 5.6325 4.32V3.375H11.5275V4.32C11.5275 4.6275 11.7825 4.8825 12.09 4.8825C12.3975 4.8825 12.6525 4.6275 12.6525 4.32V3.375H14.0925C14.2125 3.375 14.3175 3.42 14.4075 3.5025C14.49 3.585 14.535 3.6975 14.535 3.8175V5.76H2.625V3.8175ZM13.7476 8.90259C11.4826 8.90259 9.65259 10.7401 9.65259 12.9976C9.65259 15.2551 11.4901 17.0926 13.7476 17.0926C16.0051 17.0926 17.8426 15.2551 17.8426 12.9976C17.8426 10.7401 16.0051 8.90259 13.7476 8.90259ZM13.7476 15.9751C12.1051 15.9751 10.7776 14.6476 10.7776 13.0051C10.7776 11.3626 12.1051 10.0351 13.7476 10.0351C15.3901 10.0351 16.7176 11.3626 16.7176 13.0051C16.7176 14.6476 15.3901 15.9751 13.7476 15.9751ZM13.3423 12.6001L14.2273 11.7151C14.4448 11.4976 14.8048 11.4976 15.0223 11.7151C15.2398 11.9326 15.2398 12.2926 15.0223 12.5101L14.1373 13.3951C13.9198 13.6126 13.5598 13.6126 13.3423 13.3951C13.1248 13.1776 13.1248 12.8176 13.3423 12.6001Z" fill="#AAAAAA"/>
</svg>